<svg width="12" height="10" viewBox="0 0 12 10" fill="none" xmlns="http://www.w3.org/2000/svg">
<path d="M7.131 0.369216C7.189 0.425718 7.437 0.639064 7.641 0.837798C8.924 2.00292 11.024 5.04238 11.665 6.63322C11.768 6.87482 11.986 7.48563 12 7.81198C12 8.1247 11.928 8.4228 11.782 8.70726C11.578 9.06186 11.257 9.34632 10.878 9.50219C10.615 9.60253 9.828 9.7584 9.814 9.7584C8.953 9.91427 7.554 10 6.008 10C4.535 10 3.193 9.91427 2.319 9.78665C2.305 9.77204 1.327 9.61617 0.992 9.44569C0.379999 9.13298 1.29197e-07 8.52216 1.86343e-07 7.86848L1.91283e-07 7.81198C0.0150006 7.38626 0.395001 6.49099 0.409001 6.49099C1.051 4.98587 3.048 2.01656 4.375 0.823185C4.375 0.823185 4.716 0.487091 4.929 0.340964C5.235 0.113005 5.614 -5.58282e-07 5.993 -5.25149e-07C6.416 -4.88169e-07 6.81 0.127617 7.131 0.369216Z" fill="#000"/>
</svg>
